<svg width="113" height="150" viewBox="0 0 113 150" fill="none" xmlns="http://www.w3.org/2000/svg">
<circle cx="2.08346" cy="2.08346" r="2.08346" fill="#DEDEDE"/>
<circle cx="2.08346" cy="83.1018" r="2.08346" fill="#DEDEDE"/>
<circle cx="83.1018" cy="2.08346" r="2.08346" fill="#DEDEDE"/>
<circle cx="83.1018" cy="83.1018" r="2.08346" fill="#DEDEDE"/>
<circle cx="2.08346" cy="18.2871" r="2.08346" fill="#DEDEDE"/>
<circle cx="2.08346" cy="99.3054" r="2.08346" fill="#DEDEDE"/>
<circle cx="83.1018" cy="18.2871" r="2.08346" fill="#DEDEDE"/>
<circle cx="83.1018" cy="99.3054" r="2.08346" fill="#DEDEDE"/>
<circle cx="2.08346" cy="34.4908" r="2.08346" fill="#DEDEDE"/>
<circle cx="2.08346" cy="115.509" r="2.08346" fill="#DEDEDE"/>
<circle cx="83.1018" cy="34.4908" r="2.08346" fill="#DEDEDE"/>
<circle cx="83.1018" cy="115.509" r="2.08346" fill="#DEDEDE"/>
<circle cx="2.08346" cy="50.6945" r="2.08346" fill="#DEDEDE"/>
<circle cx="2.08346" cy="131.713" r="2.08346" fill="#DEDEDE"/>
<circle cx="83.1018" cy="50.6945" r="2.08346" fill="#DEDEDE"/>
<circle cx="83.1018" cy="131.713" r="2.08346" fill="#DEDEDE"/>
<circle cx="2.08346" cy="66.8982" r="2.08346" fill="#DEDEDE"/>
<circle cx="2.08346" cy="147.917" r="2.08346" fill="#DEDEDE"/>
<circle cx="83.1018" cy="66.8982" r="2.08346" fill="#DEDEDE"/>
<circle cx="83.1018" cy="147.917" r="2.08346" fill="#DEDEDE"/>
<circle cx="18.2871" cy="2.08346" r="2.08346" fill="#DEDEDE"/>
<circle cx="18.2871" cy="83.1018" r="2.08346" fill="#DEDEDE"/>
<circle cx="99.3054" cy="2.08346" r="2.08346" fill="#DEDEDE"/>
<circle cx="99.3054" cy="83.1018" r="2.08346" fill="#DEDEDE"/>
<circle cx="18.2871" cy="18.2871" r="2.08346" fill="#DEDEDE"/>
<circle cx="18.2871" cy="99.3054" r="2.08346" fill="#DEDEDE"/>
<circle cx="99.3054" cy="18.2871" r="2.08346" fill="#DEDEDE"/>
<circle cx="99.3054" cy="99.3054" r="2.08346" fill="#DEDEDE"/>
<circle cx="18.2871" cy="34.4908" r="2.08346" fill="#DEDEDE"/>
<circle cx="18.2871" cy="115.509" r="2.08346" fill="#DEDEDE"/>
<circle cx="99.3054" cy="34.4908" r="2.08346" fill="#DEDEDE"/>
<circle cx="99.3054" cy="115.509" r="2.08346" fill="#DEDEDE"/>
<circle cx="18.2871" cy="50.6945" r="2.08346" fill="#DEDEDE"/>
<circle cx="18.2871" cy="131.713" r="2.08346" fill="#DEDEDE"/>
<circle cx="99.3054" cy="50.6945" r="2.08346" fill="#DEDEDE"/>
<circle cx="99.3054" cy="131.713" r="2.08346" fill="#DEDEDE"/>
<circle cx="18.2871" cy="66.8982" r="2.08346" fill="#DEDEDE"/>
<circle cx="18.2871" cy="147.917" r="2.08346" fill="#DEDEDE"/>
<circle cx="99.3054" cy="66.8982" r="2.08346" fill="#DEDEDE"/>
<circle cx="99.3054" cy="147.917" r="2.08346" fill="#DEDEDE"/>
<circle cx="34.4908" cy="2.08346" r="2.08346" fill="#DEDEDE"/>
<circle cx="34.4908" cy="83.1018" r="2.08346" fill="#DEDEDE"/>
<circle cx="34.4908" cy="18.2871" r="2.08346" fill="#DEDEDE"/>
<circle cx="34.4908" cy="99.3054" r="2.08346" fill="#DEDEDE"/>
<circle cx="34.4908" cy="34.4908" r="2.08346" fill="#DEDEDE"/>
<circle cx="34.4908" cy="115.509" r="2.08346" fill="#DEDEDE"/>
<circle cx="34.4908" cy="50.6945" r="2.08346" fill="#DEDEDE"/>
<circle cx="34.4908" cy="131.713" r="2.08346" fill="#DEDEDE"/>
<circle cx="34.4908" cy="66.8982" r="2.08346" fill="#DEDEDE"/>
<circle cx="34.4908" cy="147.917" r="2.08346" fill="#DEDEDE"/>
<circle cx="50.6945" cy="2.08346" r="2.08346" fill="#DEDEDE"/>
<circle cx="50.6945" cy="83.1018" r="2.08346" fill="#DEDEDE"/>
<circle cx="50.6945" cy="18.2871" r="2.08346" fill="#DEDEDE"/>
<circle cx="50.6945" cy="99.3054" r="2.08346" fill="#DEDEDE"/>
<circle cx="50.6945" cy="34.4908" r="2.08346" fill="#DEDEDE"/>
<circle cx="50.6945" cy="115.509" r="2.08346" fill="#DEDEDE"/>
<circle cx="50.6945" cy="50.6945" r="2.08346" fill="#DEDEDE"/>
<circle cx="50.6945" cy="131.713" r="2.08346" fill="#DEDEDE"/>
<circle cx="50.6945" cy="66.8982" r="2.08346" fill="#DEDEDE"/>
<circle cx="50.6945" cy="147.917" r="2.08346" fill="#DEDEDE"/>
<circle cx="66.8982" cy="2.08346" r="2.08346" fill="#DEDEDE"/>
<circle cx="66.8982" cy="83.1018" r="2.08346" fill="#DEDEDE"/>
<circle cx="66.8982" cy="18.2871" r="2.08346" fill="#DEDEDE"/>
<circle cx="66.8982" cy="99.3054" r="2.08346" fill="#DEDEDE"/>
<circle cx="66.8982" cy="34.4908" r="2.08346" fill="#DEDEDE"/>
<circle cx="66.8982" cy="115.509" r="2.08346" fill="#DEDEDE"/>
<circle cx="66.8982" cy="50.6945" r="2.08346" fill="#DEDEDE"/>
<circle cx="66.8982" cy="131.713" r="2.08346" fill="#DEDEDE"/>
<circle cx="66.8982" cy="66.8982" r="2.08346" fill="#DEDEDE"/>
<circle cx="66.8982" cy="147.917" r="2.08346" fill="#DEDEDE"/>
</svg>
